<?xml version="1.0" encoding="UTF-8"?>
<svg id="a" data-name="Слой 1" xmlns="http://www.w3.org/2000/svg" viewBox="0 0 1024 1024">
  <defs>
    <style>
      .b {
        stroke: #707070;
        stroke-miterlimit: 10;
      }

      .b, .c {
        fill: #588157;
      }

      .d {
        fill: #dad7cd;
      }
    </style>
  </defs>
  <rect class="c" width="1024" height="1024"/>
  <path class="d" d="M286.12,384.85c-1.89-.22-3.4,1.51-4.26,2.86-1.22,1.89-6.46,16.65-6.88,18.88-1.31,7.01-2.08,15.04-3.34,22.27-.43,2.47,4.79,7.83,4.79,7.83.12.75,0,1.36-.23,2.09-3.59,12.08-13.74,16.19-27.85,29.85-1.91,1.85-11.21,11.01-18.29,25.32-2.05,4.15-6.79,13.72-4.12,15.76,2.37,1.81,9.99-2.8,14.58-7.32,2.31-2.27,4.51-5.7,8.8-12.46,2.17-3.42,2.51-5.64,5.39-8.74,1.46-1.57,19.12-23.18,23.63-28.32,6.46-7.35,38.16-35.64,46.3-38.31,2.6-.85,16.52-4.29,19.14-4.67,3.24-.46,34.32-5.21,46.47-7.41,2.22-.4,4.29.06,6.4-.36,2.43-.49,4.75,1.01,4.84,3.38s-.14,4.65-.37,5.51c-6.31,23.26-22.64,57.37-42.86,73.82-11.49,9.34-25.38,19.51-44.6,21.23-10,.9-20-.72-38.44,2.82-5.58,1.07-11.33,2.17-18.43,4.83-8.36,3.13-23.61,9.82-34.13,22.92-4.4,5.47-10.07,34.92-12.55,44.01-1.25,4.56-1.44,8.04-3.5,13.59-15.67,42.18-26.71,90.3-54.66,129.37-17.3,24.18-54.17,59.97-82.74,70.86-2.73,1.04-6.21,2.56-9.6,3.14-3.67.64-6.13-3.45-3.72-6.17,14.4-16.27,33.56-28.06,49.67-42.75,46.26-42.2,72-92.03,52.47-153.88-10.6-33.57-33.52-50.49-50.85-79.13-52.69-87.11-14.72-204.68,68.83-260.61,63.29-42.36,129.92-50.07,205.24-36.56,18.36,3.29,36.3,8.52,53.03,16.42-.13,1.31-4.32,1.61-5.44,1.73-17.85,1.86-36.46,1.05-54.12,1.04-5.71,0-12.88-1.15-17.43,2.76-5.52,4.75-8.33,24.76-10.65,32.4-5.25,17.3-21.68,53.1-36.37,64.27-11.1,8.44-54.59,24.96-68.21,24.6-3.24-.08-7.35-1.2-6.15-4.93.57-1.78,2.73-1.84,3.42-2.78,3.32-4.49,10.62-19.05,15.48-21.85.38-.22.8-.33,1.24-.4,14.79-2.61,33.43,1.97,44.6-9.39.41-2.16-1.02-1.21-2.43-1.35-7.26-.72-14.42-1.14-21.7-1.06-1.66.02-3.07-.99-3.66-2.47-1.83-4.57-5.16-5.44.27-9.24,3.75-2.63,8.47-3.54,13.1-3.07,11.26,1.15,28.81-1.88,35.72-13.37.25-1.82-.05-1.24-1.45-1.4-3.85-.42-17.66,4.82-26.08,6.53-3.54.72-6.12-3.09-4.01-5.89.65-.87,1.36-1.69,2.01-2.47,5.6-6.72,17.97-15.86,25.88-19.51,1.14-.52,8.78-8.17,12-15.76,1.52-3.59-3.03-6.84-6.12-4.34s-5.63,5.89-8.53,8.13c-4.1,3.16-9.21,5.65-13.06,8.81-2.39,1.97-10.95,11.98-16.65,18.02-2.42,2.57-6.88.85-6.83-2.61.02-1.57.15-3.09.21-4.33.17-3.47-.95-16.65-.95-16.65-3.37,1.75-6.08,14.18-6.48,17.87-1.02,9.31,1.78,12.57-4.15,21.03-1.91,2.72-5.54,7.49-9.25,8.67-2.56.81-5.15-1.26-5-3.84l1.67-28.42c-1.91-2-6.02,9.43-6.5,10.9-2.33,7.11-3.58,14.47-3.17,21.94.17,3.1,2.06,5.25,1.3,8.59-1.13,4.93-11.7,21.44-15.25,25.3-1.03,1.12.34,4.01-3.85,2.57-1.81-.62-2.29-4.18-2.54-5.9-3.34-23.22-5.28-41.48,7.94-62.77,12.01-19.33,43.71-32.93,66.5-40.57,4.17-1.4,3.1-7.29-1.32-7.29h-10.66c-4.46,0-22.48,5.13-27.8,6.75-107.54,32.57-179.89,123.52-155.39,234.1,8.49,38.32,31.23,55.87,52.77,85.62,14.54,20.07,18.66,42.25,26.34,65.08,1.42,1.3,1.75-.08,1.92-1.37.46-3.47,8.28-35.77,8.7-37.98,1.85-9.73,2.88-18.63,4.9-27.72,2.1-9.49,3.11-15.98,5.26-24.6,3.07-12.32,3.9-12.81,6.57-24.02,2.5-10.53,3.83-18.75,4.57-23.44,1.93-12.14,2.45-20.37,2.98-24.21,2.38-17.32,9.09-33.41,16.63-48.87,10.7-21.96,51.91-52.23,79.69-54.37,1.77-.14,3.57-.07,5.36-.02,2.13.06,3.85,1.71,3.83,3.75-.02,2.91-.08,5.84,0,8.75.27,10.77.99,30.42-4.99,39.68-5.28,8.16-10.99,12.61-18.74,18.19-3.34,2.41-5.56,5.58-9.24,6.51-2.43.62-4.8-1.27-4.8-3.68v-41.71ZM309.35,383.17c-.48-2.26-1.5-3.78-2.52-3.79-.19,0-.42.05-.7.22,0,0-.84.38-1.46,1.24-1.38,1.93-3.01,13.8-4.64,19.63-1.52,5.43-3.97,8.98-2.24,12.39.19.38.88,1.74,1.77,1.72.77-.01,1.49-1.05,2.7-4.31,1.25-3.35,1.78-5.73,2.21-7.32,1.15-4.27,2.04-4.74,3.23-8.35.85-2.58,1.74-6.39,1.64-11.44ZM256.72,414.84c-1.04.27-2.81.85-4.4,2.24-4.72,4.1-2.19,9.65-5.21,19.81-.83,2.79-4.01,7.73-4.51,10.5-.54,3.01-1.88,7.78-2.07,9.14-.05.39-.1,1.23-.11,2.27-.03,3.34,4.23,5.02,6.71,2.66l7.04-6.72c.27-.31.71-.91.8-1.74.06-.64-.12-1.16-.36-1.73-.73-1.69-1.42-2.42-1.74-3.05-.87-1.76.62-3.87,1.45-5.58,2.52-5.21-.99-7.16.81-12.89,1.82-5.77,6.52-7.06,5.72-10.54-.5-2.17-2.58-3.57-4.12-4.37Z"/>
  <path class="d" d="M551.43,617.19c-2.87-10.95-5.81-20.97-6.32-32.4-.04-.8-.48-2.79.99-2.76.62.01,9.12,6.13,10.06,7.03,5.09,4.85,3.35,7.25,5.23,12.59,1.77,5.04,6.65,20.43,11.36,22.46,1.25.54,5.11,1.61,4.8-.87-.47-3.7-10.84-23.56-8.69-25.49,3.45-.12,10.96,3.03,13.13,5.49,5.04,5.68,4.67,22.37,14.94,22.27l-3.86-17.56s0-.01.01-.01c9.9,4.19,18.44,13.29,30,12.94-.02-.75.13-1.54-.01-2.29-1.06-5.55-21.39-12.54-27.1-14.38-1.37-1.3.07-1.69,1.43-1.84,6.57-.73,13.29-1.11,19.86-1.85.31-1.62-1.24-2.91-2.54-3.58-7.01-3.66-19.39.39-27.74-1.25-1.52-.3-16.49-7.52-16.95-8.31-.57-.99-.11-2.39-.22-3.51l32.93-1.86c.03-1.03.18-1.86-.45-2.81-2.38-3.58-19.67-3.02-24.24-2.73-4.71.3-14.91,3.08-18.58,2.09-1.65-.45-10.81-5.2-11.89-6.31-.9-.92-1.55-.82-.56-2.3,2.43-3.61,18.6-.94,23.26-2.77,1.1-.43,2.83-.72,2.43-2.29-.73-2.86-13.32-2.5-15.96-2.31-5.04.35-21.93,5.55-25.98-.08-.4-.56-1.23-2.77-.68-4.84.2-.74.55-1.36.59-1.43,0,0,.68-1.17,1.96-2.07.79-.55,7.47-3.11,16.3-3.67,30.36-1.93,65.45,12.27,78.62,39.7,2.87,5.98,9.46,27.11,9.81,33.25.03.49.24,1.84-.57,2.98-.39.54-.89.89-1.3,1.11-5.99,2.76-15.28,6.4-27.13,8.48-4.8.84-45.67,8.4-72.53-13.19-8.51-6.84-15.45-15.96-20.18-27.5-.39-.96.51-1.59-1.54-1.27-17.98,2.73-21.42,14.28-21.42,14.28-1.44,3.38-1.17,7.87-.64,16.86.62,10.47,1.94,12.01,1.42,16.13-1.36,10.7-12.54,17.72-16.48,20.19-30.82,19.34-96.85-36.8-133.83-17.4-26.76,14.04-21.73,64.23-21.3,67.99,5.24,45.47,49.23,76.14,61.11,84.14,5.65,3.81,14.25,7.3,19.21,11.25,1.34,1.07,3.26,2.11,2.99,4.08-38.55-2.72-70.81-27.23-88.89-58.96-23.4-41.08-22.88-99.6,27.88-120.15-1.27-2.91-25.12-11.82-29.69-14.2-25.02-13-43.58-41.5-42-69.16.41-7.2,3.12-16.34,10.68-18.93-1.09,21.69,5,41.13,19.39,57.83,17.04,19.77,63.34,39.14,88.8,48.4,20.58,7.49,61.8,21.96,78.67,2.5,12.8-14.75-1.73-28.97,3.19-40.46,2.45-5.73,14.95-9.07,15.27-12.27l-1.95-5.58-7.76-9.22c3.61-3.39,17.86-6.9,18.42-12.08.47-4.37-9.46-11.23-5.11-21.48,5.31-12.52,38.76-4.91,35.85-24.53-1.86-12.52-25.93-38.88-32.59-54.04-10.18-23.17-.42-29.68,1.7-50.91,2.38-23.88-5.01-55.82-12.21-78.82-4.15-13.25-11.49-25.94-11.88-40.02,12.07-1.35,17.84,11.58,21.77,20.38,2.57,5.76,19.09,25.15,22.13,63.08,3.15,39.27-11.3,39.87-7.32,66.9,6.59,44.73,48.96,62.17,40.47,85.89-2.35,6.56-9.05,14.89-29.16,21.05-.75,1.07-.73,15.7-.49,18.13.46,4.73,6.2,11.78,8.62,16.75,4.19,8.6,7.47,18.75,12.56,26.87,2.22,3.54,5.1,8.09,9.84,8.63Z"/>
  <path class="d" d="M167.01,463.07c2.38-24.57,16.24-29.67,27.28-47.98,5.06-8.4,9.7-18.74,10.48-28.39-1.48-.2-2.26,0-3.45.86-4.39,3.2-14.56,18.03-19.29,23.21-2.34,2.56-5.37,5.98-7.75,8.33-1.01,1-1.7,2.16-3.4,1.83-.05-2.55-.13-5.08.24-7.63,1.44-9.94,4.41-18.79,8.93-30.38.27-.7,1.2-3.04,2.03-6.24.19-.71.32-1.29.39-1.59,3.94-15.06,6.96-31.75,8.72-47.21.34-2.98,2.33-18.39-.48-18.96-1.61-.12-2.43,1.4-3.21,2.46-7.31,9.94-8.84,33.29-12.06,45.86-.77,2.99-3.91,14.63-5.03,16.48-1.99,3.3-3.76-7.75-4.07-9.1-.85-3.68-1.8-8.06-2.22-11.76-.35-3.06.8-9.37-.48-11.57-.98-1.68-1.58-.33-2.3.61-5.59,7.19-6.85,17.79-4.51,26.27,1.97,7.15,7.36,11,9.29,18.01l-5.89,38.43c-2.22.53-1.59-.41-2.2-1.16-10.07-12.31-6.36-35.19-10.58-50-3.57-6.76-5.48,9.54-5.64,11.79-1.13,15.68-1.36,36.87,11.14,48.67,2.2,2.08,5.82,2.48,6.34,5.06.31,1.5-.7,12.7-1.05,14.74-.35,2.01-2.06,10.17-4.79,8.43l-20.62-27.03-3.56-1.23c-1.17,9.94,3.16,19.77,9.66,27.32,7.49,8.72,17.91,11.07,16.49,24.06-1.2,10.99-.86,11.49-.02,22.22.61,7.73.41,15.83.98,23.59-1.99.34-2.56-.22-3.88-1.37-3.77-3.29-16.33-19.77-19.77-24.61-30.71-43.19-17-123.15,8.97-166.25,14.89-24.72,38.07-42.37,58.94-62.11.8-.75.21-1.73,2.71-1.14,2.68,1.09,1.18,16.37,1.42,19.93,2.67,38.89,17.61,78.94,8.47,118.17-1.75,7.51-4.99,14.71-6.38,22.6-3.74,21.2-.36,42.05-7.82,62.87-2.46,6.85-6.55,13.12-9.22,19.88-5.54,14-7.25,27.98-10.2,42.57l-2.79-.09c-10.89-18.26-10.46-37.26-9.73-57.71,4.42-10.7,24.28-28.79,22.25-40.75-1.11-6.55-9.53,5.09-11.08,6.99-3.38,4.12-6.41,8.88-9.28,13.36l-1.94-.94c.44-6.3-.6-13.23,0-19.44Z"/>
  <path class="d" d="M781.18,570.74c-.1-.09-1.11-1.04-.9-2.46.2-1.36,1.34-2.02,1.48-2.09,1.15-.76,2.89-1.79,5.14-2.71,9.15-3.75,17.85-1.35,23.6-.93,15.8,1.16,31.95,13.99,48.86,12.06l-33.9-12.48c-1.81-1.21.05-1.91,1.25-2.51,15.07-7.52,35.04,5.29,50.8,8.29,3.33.63,13.35,2.74,14.29-.69-2.08-4.78-28.35-10.88-34.28-13.05l.03-1.93c.02-1.5.89-2.94,2.32-3.57,14.05-6.16,28.51.65,42.88,3.46,4.56.89,18.51,4.52,21.89,2.2.98-.06.74-1.75.49-2.3-1.71-3.88-26.82-8.82-32.1-10.06-.97-.23-2.91-.28-2.68-1.58l5.77-.05c-1.69-4.95,11.19-8.64,15.13-9.14,11.78-1.49,24.51,2.9,36.76,1.82,2.87-.25,4.81-.53,6.76-2.82.71-1.07-1.38-2.3-2.2-2.56-3.74-1.16-14.96-1.57-17.66-3.48l-1.02-2.74c4.19-2.73,8.96-4.61,13.63-6.47,3.64-1.45,17.39-5.06,18.2-7.61.93-2.91.15-4.97-3.19-4.97-3.02,0-20.67,6.58-24.42,8.22-5.71,2.5-10.04,6.98-15.8,7.57-.33-.28,2.16-6.96,2.73-8.03.89-1.69,2.88-3.95,4.74-6.34,3.26-4.18-3.19-9.01-6.68-5-6.63,7.63-14.41,19.56-18.19,22.65-2.17,1.77-5.47,3.14-8.09,4.3-2.37,1.05-11.4,5.75-11.16,1.41,1.22-5.31,4.23-9.87,7.36-14.33,3.05-4.34-3.53-8.86-6.88-4.73-1.99,2.45-3.53,4.51-4.14,5.33-3.42,4.61-11.8,20.06-15.51,22.2-1.12.65-14.55,5.72-15.37,5.65-4.22-.36,1.27-10.75,2.27-12.61.73-1.35,1.6-2.62,2.53-3.86,3.07-4.06-3.05-8.73-6.61-5.04-.49.5-.86.91-1.1,1.18-5.4,6.17-13.74,21.56-20.48,24.85-3.29,1.61-19.86,5.72-29.45,6.84-3.55.41-6.05-3.29-4.14-6.18,1.56-2.36,3.53-4.55,5.21-6.5,25.61-29.77,51.23-49.2,90.98-59.28,26.62-6.75,67.35-4.16,93.19,5.36,3.91,1.44,5.75,2.64,6.36,4.16,1.35,3.34-1.03,7.27-1.98,8.77-67.45,106.11-128.43,92.45-128.43,92.45-11.26-2.52-18.68-7.92-46.36-14.56-13.29-3.19-24.43-5.02-31.93-6.09Z"/>
  <path class="d" d="M810.93,771.76c-24.93,5.18-53.61,3.12-78.43-2.28-25.87-5.63-46.83-15.54-64.89-34.24-24.3-25.15-29.9-58.57-52.29-84.23-1.03-1.18-9.94-8.7-8.68-9.74,4.46-.33,10.11,1.65,14.07,3.67,6.53,3.34,31.51,23.35,34.4,29.14,4.13,8.3,5.03,20.23,9.46,29.83,2.68,5.8,7.38,16.2,14.69,16.96,2.19-2.24-7.01-20.09-8.48-23.82-1.62-4.1-3.39-8.87-4.76-13.04-.41-1.25-1.81-3.76-.8-4.79,9.31,8.43,20,14.05,25.16,25.93,5.51,12.69,5.43,21.49,16.03,32.82,3.57,3.82,11.07,10.31,16.41,6.51-5.52-10.58-17.1-21.62-19.28-33.39-.22-1.17-.65-4,1.38-3.17,12.87,9.22,24.23,20.17,37.38,29.07,7.48,5.06,33.11,20.97,41.05,20.94,3.05,0,.88-4.51.27-5.83-4.01-8.57-27.37-16.32-33.65-25.23l18.39,3.24c1.9-1.65-6.18-4.85-7.52-5.3-4.6-1.53-9.83-1.61-14.32-2.98-6.75-2.05-18.46-8.74-24.55-12.63-3.45-2.21-19.92-13.98-20.44-16.57-.3-1.47-.11-1.5,1.3-1.25,13.44,2.38,29.06,9.94,42.86,11.81,1.1.15,2.21.11,3.3.07.32-1.78-1.25-2.66-2.44-3.67-12.62-10.79-33.68-11.69-49.26-14.01-11.3-1.68-19.32-10.5-26.71-17.95,1.12-1.61,1.52-1.19,3.09-1.15,12.04.35,25.85,4.34,38.03,5.33,1.31-.77.47-2.4-.47-3.25-1.86-1.7-15.8-5.12-19.14-5.77-15.5-2.99-30.83-1.3-44.7-10.03-1.9-1.2-12.28-9.24-9.75-11.51,33.2-4.43,62.04-1,89.79,17.38,30.12,19.96,51.38,46.69,67.6,77.93,4.11,7.92,12.98,24.73,15.51,32.4.3.92.66,1.79.42,2.77Z"/>
  <path class="d" d="M723.07,638.71c3.23-3.08,12.62.37,16.73.69,16.99,1.32,39.65-11.94,56.36-17.37,59.34-19.29,95.15-9.56,145.44,23.48,3.61,2.37,15.82,9.93,15.6,13.73-.31,5.27-16.18,19.12-20.87,22.74-38.52,29.7-98.01,39.17-141.76,14.3-20.71-11.78-38.01-36.82-57.28-47.07-4.44-2.36-11.63-2.17-14.02-4.18-1.85-1.56-1.83-4.75-.2-6.31ZM840.96,630.16c-11.76-.69-20.31,7.21-30.83,10.79-5.61,1.91-11.72,2.55-17.2,4.85l-18.4,1.86-17.81-1.75,5.86,5.03c10.12,6.53,22.98,6.04,32.4,13.45,13.41,10.55,22.77,28.81,43.06,29.64l-.92-4.21c-8-8.3-20.79-14.22-28.44-22.59-.95-1.04-.72-1.53-.66-2.81,5.71.34,12.29.33,17.91.93,3.51.37,10.6.79,13.34,2.06,5.08,2.36,14.63,14.6,20.06,18.78,6.75,5.19,11.78,6.12,19.36.91-6.18-8.02-18.93-9.65-23.22-18.97,1.22-1.03,27.83.94,31.24,2.06,2.64.87,10.28,8.69,13.38,10.35,4.93,2.65,11.69,1.74,16.42-.85,2.94-6.69-8.34-4.46-12.68-5.5l-8.65-4.21c13.08-2.41,27.2-.95,40.12-2.84,8.4-1.23,3.55-6.9-2.95-8.18-20.05-3.94-40.48,1.15-60.42-2.88,5.54-6.38,18.45-6.6,25.08-10.72,1.4-.87,3.24-2.24,2.99-4.07-2.61-3.37-20.26,3.58-23.9,5.37-4.33,2.13-9.76,7.21-13.79,8.11-5.96,1.32-14.38.34-20.4-.53-1.49-1.59,6.59-6.14,7.82-6.86,3.59-2.12,15.83-6.9,17.69-8.82.98-1.01.66-1.58.64-2.82-2.83-2.76-23.25,6.72-26.63,9.25-2.41,1.81-7.28,8.39-9.07,8.79-8.9-.89-18.91.08-27.57-2.46-1.88-.55-1.42-2.72-.43-3.38.59-.39,2.76-.32,4.19-1.03,4.52-2.26,8.07-5.1,12.86-7.17,4.29-1.86,14.95-3.99,17.99-5.95,1.68-1.09,1.77-1.71,1.55-3.6Z"/>
  <path class="d" d="M927.89,394.34c3.56,3.28-7.11,20.37-9.64,24.13-21.15,31.44-47.72,48.35-73.89,61.64-9.22,4.68-18.25,8.53-30.1,9.43-6.83.52-20.45,1.56-31.4-6.1-7.61-5.32-7.13-10.09-15.58-19.37-7.71-8.46-16.24-13.42-22.18-16.27,6.46-.32,15.69-2.4,21.86-.07,4.84,1.82,7.16,7.87,10.59,11.17,7.08,6.81,26.81,17.44,36.3,11.56l-1.43-2.32c-7.77-4.36-17.8-8.19-25.05-13.08-1.29-.87-1.66-2.26-2.64-3.03-1.14-.9-8.4-3.54-4.8-5.66,8.69-.85,17.82-3.27,26.58-2.21,14.6,1.77,27.95,17.42,44.14,11.94.31-1.97-.01-2.43-1.57-3.58-3.67-2.7-17.58-6.99-22.98-9.5-2.44-1.13-5.91-2.25-7.4-4.49,6.71-1.68,11.6-4.13,18.87-3.7,9.51.57,21.09,6.78,30.27,8.09,2.76.4,10.61,1.44,10.97-2.1l-1.03-2.77c-6.32-3.19-15.68-4.56-21.55-8.09-1.21-.72-2.05-.86-1.68-2.55,3.16.36,5.93-.48,8.91-1.2,9.08-2.18,26.07-6.21,33.89-10.18,2.44-1.24,6.94-3.86,7.17-6.67l-.83-2.1c-4.26-3.23-26.42,5.38-32.66,6.75-1.86.41-13.02,2.76-13.58,2.28,1.43-7.77,12.39-11.33,11.61-19.43-5.25-5.12-26.16,23.01-30.06,25.41-4.59,2.82-11.14,3.33-16.41,4.2-1.56-1.49,6.92-12.84,8.31-14.73,3.34-4.53,9.48-7.89,8.14-13.97-3.13-2.98-15.29,9.24-17.45,11.55-5.28,5.64-11.84,17.66-18.15,20.6-5.51,2.57-13.58,3.87-19.6,2.56-.47-5.56,16.52-17.8,19.55-24.84.62-1.43,1.09-1.09-.65-2.43-15.8,7.6-27.75,20.29-39.84,32.25-3.16.89-21.88,5.98-22.62,2.41-.57-2.74,19.78-28.2,23.19-31.49,19.87-19.11,64.91-30.62,92.51-29.11,24.01,1.32,48.92,8.76,71.92,15.03Z"/>
  <path class="d" d="M388.75,720.87c.28-7.29-6.67-15.14-7.75-21.75-.23-1.41-.03-1.61,1.44-1.37l38.29,22.64c11.22,11.6,16.53,31.95,35.11,34.97.75.12,2.57,1.05,2.61-.69.05-1.88-8.65-14.53-10.66-16.64-3.24-3.41-10.65-5.83-8.24-10.67,3.25-6.51,19.52.32,23.78,4.14,6.34,5.7,7.19,16.72,13.01,21.81,4.4,3.85,7.7,2.05,7.92-3.42.36-9.15-14.65-24.96-23.32-28.14-6.71-2.46-14.56-2.6-20.6-4.37-5.37-1.58-10.84-6.38-15.88-8.88-9.32-4.63-51.97-22.87-55.06-29.75-.89-1.98,6.78-2.97,8.34-3.11,31.18-2.89,77,14.07,101.08,32.74,22.22,17.22,42.32,42.03,63.39,61.59,2.21,2.06,15.45,10.26,7.73,11.97-55.39,12.25-135.08-5.29-173.3-47.15-11.26-12.34-26.95-35.71-30.06-51.81-2.19-11.37,13.67-3.11,18.35.98,11.89,10.4,13.16,26.07,23.82,36.93Z"/>
  <path class="d" d="M537.4,636.64c34.99,4.55,69.35,28.97,86.83,57.7,12.98,21.34,22.66,59.95,40.49,75.15,3.35,2.85,14.24,8.21,15.49,11.12.66,1.54-.61,1.24-1.21,1.58-6.52,3.67-23.29,3.06-31.26,2.61-22.49-1.27-50.51-10.47-70.18-20.85-19.83-10.47-63.25-43.73-66.73-65.8-.86-5.46.26-12.71-.02-18.49-.42-8.66-2.06-19.17-2.01-27.68.01-1.89,1.26-3.99,1.03-6.04,6.44-1.1,11.2,5.26,14.32,9.85,2.36,3.46,5.29,11.85,7.48,14.14,1.48,1.55,5.08,2.65,7.13,4.29,8.51,6.82,28.07,24.54,30.97,34.27,3.2,10.74-.1,23.28,7.83,32.32,2.99,3.41,7.7,7.28,12.61,5.06-4.04-9.2-9.84-19.15-10.55-29.25-.1-1.39-.8-2.57,1.34-2.2,8.07,8.58,18.35,16.31,26.17,24.97,7.53,8.35,13.02,21.02,25.64,23.15,3.11-3.12-8.5-24.07-11.2-27.7-5.83-7.86-15.8-13.79-23.2-20.4-3.28-2.94-15.57-14.16-16.91-17.16-.83-1.85,1.35-1.35,2.43-1.4,7.81-.4,14.98,3.6,22.74,3.72-.28-8.59-18.47-13.89-25.76-14.71-5.12-.58-9.24.95-14.1-1.34-2.22-1.05-14.17-10.18-11.46-12.65,2.14-.28,13.58.93,13.53-1.39-2.71-2.56-6.23-5.82-9.61-7.45-13.23-6.4-24.05-5.21-34.88-18.49-1.72-2.11-3.44-4.01-2.94-6.91,5.03.46,11.1-.63,15.98,0ZM559.18,728.27c1.64-1.39-15.35-34.89-22.26-35.17-2.18,9.03.5,13.03,5.4,20.29,1.82,2.69,13.4,17.83,16.86,14.88Z"/>
  <path class="d" d="M413.93,274.24c.05-.97,2.95-5.39-.5-5.11-9.53,1.58-7.28,27.27-9.65,34.28-2.18,6.44-11.22,14.13-14.58,20.39l-2.89-.95c-1.74-13.25,3.51-26.66,1.47-39.83-4.02-1.16-5.69,2.91-6.82,5.98-5.6,15.16-1.2,30.02-4.05,43.34-.32,1.49-9.79,14.83-10.63,15.27-.72.38-3.12.47-3.58.12-3-2.29,1.84-24.04.87-29.07-.41-2.11-1.5-2.79-3.74-2.18-1.52.8-3.71,11.85-3.99,14.23-1.02,8.51,1.21,18.06-.07,25.85-.44,2.66-3.38,8.28-6.25,8.83-7.09,1.35-5.09-.79-6.82-2.65-2.87-3.08-4.01-4.98-4.37-9.76-3.54-46.34,30.12-93.23,79.11-100.39,6.22-.91,26.49-3.46,31.59-2.67,6.44,1,3.89,3.3,4.72,7.54,7.53,38.28,11.16,70.32-15.21,103.24-21.85,27.28-53.56,29.54-86.15,34.28-2.9.42-6.19-.17-9.16.05-.13-2.67-.24-5.15,1.47-7.39,1.19-1.56,13.46-11.24,15.4-12.12,15.15-6.85,35.26-8.69,51.16-14.96,5.16-2.04,13.18-4.74,13.3-10.88-13,2.12-29.03,4.23-42.16,2.82-1.45-.16-2.45-.11-3.34-1.45-.32-1.44,13.9-14.43,16.18-15.06,3.3-.91,8.45.17,12.26-.31,6.56-.82,24.42-4.19,28.91-8.21,1.67-1.5,4.9-7.62,1.22-7.44-2.87,1.44-35.37,8.54-35.35,6.02,1.07-3.41,6.57-12.38,9.34-14.22,4.72-3.14,33.72-4.81,32.17-12.48-2.89-4.47-11.79-.22-16.92.21-2.38.2-4.76.16-7.14.11,4.9-7.55,20.28-21.04,22.08-29.37,1.43-6.65-4.38-5.5-8.09-2.14-3.32,3.01-10.89,14.81-13.82,19.18-1.7,2.53-2.45,7.48-5.98,7.71.28-6.91-.38-13.92,0-20.83Z"/>
  <path class="d" d="M818.69,352.46c.48.4-3.73,6.08-4.05,6.3-.19.13-1.82.97-3.32,1.9-54.58,33.72-125.71,11.69-183.01-3.57-.53.64-1.32,1.53-2.35,2.5-.94.87-3.88,3.48-9.25,5.69-5.36,2.2-9.94,2.68-14.34,3.11-13.32,1.31-21.07-1.44-24.01-3.25-.28-.17-.55-.36-.55-.36-1.31-.89-5.47-3.72-5.82-7.85-.2-2.37.92-4.35,1.8-5.52,1.2,2.2,3.26,4.97,6.68,6.81,2.71,1.46,5.14,1.71,9.2,2.13,4.14.43,7.22.16,9.96-.08.97-.09,4.23-.4,8.07-1.64,1.27-.41,3.01-1.06,4.21-2.63.43-.57,1.06-1.41.86-2.46-.24-1.28-1.54-1.93-1.75-2.02-2.09-1.39-5.09-3.66-8.96-6.13-3.17-2.02-6.28-4.05-8.65-6.2-6.98-6.34-12.81-15.42-20.15-21.93-15.82-14.03-53.37-36.38-73.59-43.5-8.72-3.07-18.21-4.18-26.44-7.12-7.7-2.75-10.61-5.75-9.9-14.15,4.2.12,7.86-1.02,12.14-.98,61.68.57,111.32,65.68,164.72,89.71,42.16,18.98,98.66,29.03,144.66,19.13,11.06-2.38,22.09-7.72,33.86-7.89Z"/>
  <path class="d" d="M534.71,383.27c1.44,1.15,4.09,6.57,6.09,8.51,6.53,6.32,14.36,3.46,22.16,6.59,37.91,15.21,45.21,65.82,83.5,81.24,17.44,7.03,34.96,5.67,52.16,10.3.91.24,3.92,1.13,3.86,2.3-22.23,6.53-43.46,5.16-66.04,1.59-17.09-2.7-35.38-7.84-51.62-13.6-22.08-7.83-31.92-17.75-41.82-37.77-8.14-16.45-7-31.59-12.15-47.63-.95-2.97-4.46-6.36-4.61-8.65-.27-4.32,5.39-5.34,8.46-2.89ZM569.21,430.81c-7.64-6.99-15.07-16.54-22.71-23.18-1.88-1.63-5.01-4-7.64-4.26-1.39,1.5,7.98,19.74,9.67,22.68,5.28,9.18,15.95,24.01,24.86,29.92,4.33,2.88,33.27,17.59,36.15,14.96.26-1.32-.29-2.28-.75-3.44-3.33-8.52-31.33-29.14-39.58-36.68Z"/>
  <path class="d" d="M817.89,599.69c.08,1.54.16,3.07.24,4.61-.56,1.64-1.68,4.13-4.07,5.99-6.37,4.97-15.36.58-25.38.23-13.63-.47-17.1,6.95-32.72,11.96-19.83,6.37-38.14,2.1-46.66.11-24.32-5.67-39.57-19.86-51.36-30.82-22.84-21.24-30.06-40.53-51.97-55.92-11.42-8.02-16.28-11.06-16.28-11.06-15.19-9.51-18.61-9.49-22.99-14.75-8.62-10.33-9.12-26.8-4.14-29.5,3.82-2.07,11.53,4.5,17.62,9.69,10.32,8.78,12.54,14.16,21,24.19,10.29,12.22,11.34,9.44,34.24,32.5,7.82,7.87,12.78,13.32,15.33,16.15,9.11,10.14,13.39,15.92,16.52,19.58,16.83,19.61,42.74,26.59,45.98,27.42,4.98,1.28,32.74,7.95,60.59-3.69,15.61-6.52,28.31-17.57,38.32-12.44,2.95,1.51,4.72,3.95,5.75,5.76Z"/>
  <path class="d" d="M785.64,514.64c1.01.71,2.01,1.42,3.02,2.12,1,.54,2.02,1.11,3.06,1.73,1.66.98,3.32,8.16,2.19,9.67,0,0-1.92,2.58-3.78,4.8-.24.29-.73.93-1.49,1.79-7.68,8.64-27.55,13.03-27.55,13.03-11.19,2.35-30.87,6.24-53.3-1.6-4.71-1.64-8.42-3.41-10.83-4.67l-1.23-2.07c1.8-.09,3.63,0,5.46.04,2.51.05,4.44-.19,5.45-.26,17.56-1.33,26.34-1.99,27.91-5.98.51-1.3.37-3.07-.61-4.17-1.76-2-5.63-1.06-5.92-.98-11.54,2.53-21.45,3.53-28.91,3.94-19.04,1.03-33.42.58-44.39-7.52-3.13-2.31-10.88-11.87-7.16-15.37,3.01-2.84,6.74.46,9.9.72,27.4,2.29,51.04-8.72,78.34-6.39,9.3.79,21.72,2.71,30.81,4.8,7.04,1.62,12.4,4.13,19.05,6.38Z"/>
  <path class="d" d="M627.6,412.02c2.79,3.08,4.82,9.31,7.28,12.94,6.95,10.24,17.38,22.18,30.81,23.76.22-1.08-.12-1.78-.52-2.73-2.95-6.94-20.04-19.13-24.14-26.91-.65-1.23-1.26-3.36.91-2.73,4.84,1.4,21.33,7.11,24.69,9.73.7.55,10.34,10.7,11.03,11.63,5.62,7.59,4.5,9.99,14.95,14.63,2.29,1.01,10.97,4.98,10.87.58-2.99-7.67-10.18-8.88-4.79-18.04.66-.57,15.48,3.66,17.11,4.36,3.36,1.43,18.48,18.38,19.83,21.77,1.01,2.53,1.56,4.22-1.42,5.53-1.38.61-8.24,2.23-10,2.47-30.34,4.18-59.05,3.19-84.14-14.76-14.46-10.35-40.15-40.66-50.29-55.6-2.37-3.49-3.63-7.41-6.37-10.58-.64-1.32,4.1-2.84,4.37-2.86.78-.04,4.61,1.96,5.63,2.57,5.98,3.57,30.46,20.09,34.2,24.23Z"/>
  <path class="d" d="M702.49,402.45c-7.96-.42-15.89,1.18-23.62,2.87-8.56,1.87-13.54,5.55-23.09,4.29-5.34-.7-10.54-3.81-16.22-3.93-2.15-1.24-2.71-3.79-1.07-5.64,2.75-3.12,30.62-3.35,36.27-4.96l.63-3.73c-11.08.04-22.17-.49-33.14,1.18-7.7,1.17-13.42,4.16-21.56,3.43-6.45-.58-18.91-5.27-19.86-12.01,9.57-2.38,19.69-5.42,29.55-6.47,28.94-3.11,50.96,3.16,77.72,10.83,13.02,3.73,26.54,5.19,39.95,7.16,1.14.75.95,1.47.77,2.6-.38,2.41-5.85,12.78-7.59,15.03-4.59,5.93-12.96,11.31-18.41,16.65-1.64.72-4.51.79-6.26.46-.45-.09-7.55-4.21-7.81-4.57-1.83-2.47,2.04-5.7-.88-7.31-11.27,1.56-25.4,2.62-35.36-3.37.02-3.2,24.67-7.85,28.33-9.92,1.24-.7,2-.96,1.66-2.57Z"/>
  <path class="d" d="M749.64,577.57c1.4-.62,5.65-2.63,5.41-4.68-.14-1.21-1.81-2.07-6.44-3.45-2.92-.87-21.51-6.25-23.81-8.28-.75-.67-1-1.46-1-1.46-.14-.45-.13-.95,0-1.74,6-.39,14.37-.31,24.02,1.75,8.59,1.84,15.5,4.67,20.49,7.15,2.7,1.23,6.95,3.61,10.56,8,1.58,1.92,2.69,3.79,3.48,5.42.24,1.07.39,2.62-.26,4.19-3.09,7.47-21.06,7.04-28.72,6.85-18.2-.44-54.26-1.62-81.88-29.17-2.81-2.8-20.93-24.92-18.37-27.33,1.51-.36,2.28.38,3.43.88,2.15.92,17.23,7.01,30.47,14.37,19.03,10.59,17.07,15.59,30.42,21.71,10.85,4.98,22.05,6.22,32.19,5.79Z"/>
  <path class="d" d="M491.4,295.98c-.59-3.76,5.03-6.86,8.29-7.33,13.94-2.03,36.87,10.86,46.92,19.83,10.9,9.73,12.62,21.74,25.86,26.19,3.28,1.1,6.15,1.46,7.99,1.6-12.91,3.41-21.91,1.69-27.09,0-15.21-4.94-26.86-19.05-31-24.06-6.13-7.43-8.97-13.17-16.75-15.78-5.45-1.83-10.67-1.23-14.22-.44Z"/>
  <path class="d" d="M517.99,322.46c1.83,3.45,13.55,24.85,37.98,32.61,5.7,1.81,10.65,2.42,13.83,2.65h0c-2.62,2.09-8.26,5.96-16.01,6.4-9.63.55-16.52-4.53-22.41-8.86-.63-.47-14.69-11.09-19.67-28.23-1.32-4.53-1.86-9.03-2.12-11.16-.51-4.22-1.33-13.77,0-14.03,1.36-.27,2.6,9.66,8.4,20.62Z"/>
  <path class="d" d="M421.69,446.88c7.94,1.37,15.79,7.24,23.8,8.25,7.77.98,16.31.03,23.68-2.23l9.65,12.94c-19.05,11.03-51.12,2.7-57.12-18.96Z"/>
  <path class="b" d="M380.33,418.87c-6.4,7.41-15.26,13.5-21.48,21.28l7.17-1.84c3.03-1.54,8.32-8.33,10.16-3.09-1.36,3.8-4.75,7.63-8.96,8.54-2.65.57-11.14-.14-13.11.66-2.55,1.03-18.83,12.95-18.98,14.13,7.36,3.21,15.52-2.11,23.27-.58-1.6,6.68-4.97,8.62-11.57,8.97-5.3.28-17.21-2.01-21.36-.86-2.24.62-6.52,3.86-8.72,5.37-3.54,2.41-7.3,5.64-10.75,8.25.64.76.76,1.15,1.85,1.28,8.79,1.01,19.23-1.88,28.18-1.08l2.74,1.95c-12.06,9.47-27.03,3.66-40.26,4.23-9.29.39-16.4,6.98-25.64,8.22h-6s11.12-7.72,11.12-7.72l9.56-10.08c1.94-3.99,5.1-7.35,7.31-11.19,4.14-7.19,4.89-15.88,11.98-21.25,1.13.97,1.41,1.37,1.01,2.81-.71,2.61-5.69,9.04-7.17,12.21-1.65,3.52-2.2,6.87-3.59,10.38-.45,1.11-1.73,2.13-1.86,2.64-.23.86.65,2.32,2.02,1.72,6.3-2.8,11.52-8.26,17.09-12.12.82-1.1.14-7.23.57-9.45.61-3.1,7.32-18.5,10.39-18.31.67.69,1.15.86,1.12,1.91-.06,2.01-4.55,10.73-5.5,13.69-.32,1.02-2.56,7.57-.87,7.74,3.91-2.45,9.25-6.02,11.97-9.69,1.84-2.48,2.27-8.04,3.64-11.37,1.14-2.81,7.59-15.41,10.86-14.78,1.11.93.77,2.61.43,3.79-1.64,5.6-8.92,12.05-8.73,18.39,13.54-7.47,22.57-20.38,36.12-27.96,4.4-2.46,10.16-1.61,5.99,3.21Z"/>
</svg>