<?xml version="1.0" encoding="UTF-8"?>
<svg xmlns="http://www.w3.org/2000/svg" viewBox="0 0 1024 1024">
  <defs>
    <style>
      .c {
        fill: #fffbfb;
      }

      .d {
        fill: none;
        stroke: #fffbfb;
        stroke-miterlimit: 10;
        stroke-width: 10px;
      }

      .e {
        fill: #3a5a40;
      }
    </style>
  </defs>
  <g id="a" data-name="Слой 1">
    <rect class="e" width="1024" height="1024"/>
  </g>
  <g id="b" data-name="Слой 2">
    <g>
      <circle class="d" cx="512" cy="511.44" r="475"/>
      <path class="c" d="M751.77,621.47c-.3-3.05-.38-19.08.3-24.92.14-1.19.97-2.19,2.11-2.54,29.35-9.11,39.25-21.21,42.76-30.79,12.94-35.26-51.62-61.19-61.66-127.69-6.06-40.18,15.95-41.07,11.15-99.46-4.64-56.39-29.8-85.21-33.72-93.78-5.63-12.3-13.74-30.02-29.96-30.44-1.77-.05-3.18,1.49-3.05,3.25,1.54,19.7,11.93,37.67,17.93,56.39,10.97,34.19,22.24,81.67,18.61,117.17-3.23,31.56-18.09,41.24-2.59,75.68,10.14,22.54,46.82,61.73,49.65,80.34,4.44,29.17-46.53,17.86-54.62,36.47-6.62,15.24,8.5,25.44,7.78,31.93-.74,6.67-17.13,11.47-25.08,15.92-1.66.93-2.03,3.16-.79,4.59l9.26,10.73c.24.28.43.6.56.95l2.01,3.78c.64,1.2.83,2.59.53,3.91-.2.87-.52,1.67-.9,2.05-4.25,4.22-18.89,8.92-22.12,16.28-7.5,17.08,14.64,38.22-4.86,60.16-25.7,28.92-88.5,7.41-119.85-3.72-38.79-13.77-109.33-42.58-135.29-71.96-20.78-23.52-30.19-50.72-29.71-80.94.04-2.44-2.7-3.98-4.69-2.58-7.86,5.56-10.89,16.64-11.42,25.69-2.41,41.12,25.87,83.48,63.98,102.81,5.61,2.85,30.27,11.99,40.67,17.71,2.18,1.2,2.07,4.39-.2,5.4-72.58,32.19-72.61,116.83-37.71,176.62,26.48,45.37,72.96,80.81,128.72,87.05,3.05.34,4.64-3.53,2.21-5.41l-.06-.05c-7.57-5.88-20.66-11.07-29.27-16.73-18.1-11.9-85.11-57.49-93.09-125.09-.66-5.59-8.32-80.21,32.44-101.08,56.34-28.85,156.93,54.62,203.89,25.86,6-3.67,23.04-14.11,25.11-30.01.8-6.11-1.22-8.41-2.16-23.97-.81-13.37-1.21-20.05.98-25.07,0,0,5.04-17.31,32.42-21.38.06,0,.65-.36,1.11-1,1.11-1.54,1.01-3.64-.21-5.09-25.45-30.43,5.4-22.72,8.94-36.26-.05-.26-.1-.53-.13-.79Z"/>
      <path class="c" d="M213.39,470.03c3.62-36.53,24.74-44.11,41.56-71.32,7.71-12.48,14.77-27.86,15.97-42.2-2.26-.3-3.45,0-5.25,1.28-6.68,4.76-22.18,26.81-29.39,34.51-3.56,3.81-8.18,8.89-11.8,12.39-1.54,1.48-2.59,3.21-5.18,2.72-.08-3.79-.19-7.55.37-11.34,2.19-14.77,6.72-27.94,13.6-45.16.42-1.04,1.82-4.52,3.1-9.28.28-1.06.49-1.91.6-2.36,6-22.38,10.6-47.2,13.28-70.18.52-4.44,3.55-27.33-.74-28.18-2.45-.18-3.7,2.08-4.9,3.66-11.13,14.77-13.47,49.5-18.38,68.18-1.17,4.44-5.96,21.76-7.66,24.51-3.03,4.91-5.73-11.53-6.2-13.52-1.29-5.46-2.75-11.98-3.39-17.48-.53-4.55,1.21-13.93-.74-17.2-1.49-2.5-2.4-.49-3.51.9-8.51,10.69-10.44,26.45-6.87,39.06,3.01,10.63,11.21,16.36,14.15,26.78l-8.98,57.13c-3.38.79-2.42-.61-3.36-1.73-15.35-18.3-9.68-52.31-16.12-74.34-5.44-10.06-8.34,14.19-8.59,17.53-1.72,23.31-2.07,54.81,16.97,72.36,3.36,3.1,8.86,3.68,9.66,7.52.47,2.23-1.07,18.88-1.6,21.91-.53,2.99-3.13,15.12-7.3,12.53l-31.42-40.18-5.42-1.83c-1.79,14.78,4.81,29.39,14.71,40.62,11.42,12.96,27.28,16.45,25.12,35.76-1.83,16.33-1.31,17.09-.03,33.03.92,11.49.63,23.53,1.49,35.06-3.03.5-3.9-.32-5.91-2.04-5.74-4.9-24.88-29.39-30.12-36.58-46.79-64.21-25.91-183.09,13.66-247.16,22.69-36.74,58-63,89.79-92.33,1.21-1.12.32-2.57,4.13-1.69,4.09,1.62,1.79,24.34,2.17,29.63,4.07,57.82,26.83,117.36,12.9,175.68-2.67,11.17-7.6,21.88-9.71,33.6-5.69,31.52-.55,62.52-11.92,93.47-3.74,10.19-9.97,19.51-14.05,29.55-8.45,20.81-11.04,41.6-15.54,63.28l-4.25-.14c-16.6-27.14-15.94-55.39-14.83-85.8,6.73-15.9,36.98-42.79,33.9-60.58-1.69-9.73-14.52,7.57-16.89,10.39-5.15,6.13-9.76,13.21-14.13,19.86l-2.96-1.4c.67-9.37-.91-19.67,0-28.9Z"/>
      <path class="c" d="M843.2,714.55c.05-.04.58-.41,1.2-.17.59.23.77.82.79.89.22.61.51,1.51.69,2.64.75,4.59-1.22,8.36-2,10.97-2.14,7.16-9.56,13.33-10.42,21.31l9.08-14.37c.73-.71.86.22,1,.83,1.84,7.69-5.97,15.62-8.93,22.58-.63,1.47-2.6,5.88-1.15,6.65,2.36-.48,7.79-11.98,9.38-14.49l.87.21c.67.16,1.23.7,1.37,1.42,1.33,7.09-3.21,13.07-5.94,19.41-.87,2.01-3.93,8.08-3.23,9.86-.08.46.71.51.98.46,1.92-.4,6.71-11.48,7.81-13.79.2-.42.42-1.31.98-1.08l-.57,2.66c2.4-.28,2.74,6.02,2.56,7.88-.54,5.58-3.81,11-4.58,16.76-.18,1.35-.25,2.27.57,3.4.41.43,1.18-.41,1.38-.76.91-1.61,2.24-6.73,3.37-7.79l1.34-.2c.8,2.2,1.16,4.59,1.51,6.93.28,1.82.49,8.52,1.56,9.15,1.21.72,2.22.56,2.56-.97.31-1.39-.84-10.18-1.2-12.07-.54-2.88-2.11-5.32-1.79-8.04.16-.12,2.91,1.69,3.33,2.06.67.58,1.48,1.72,2.37,2.82,1.55,1.92,4.38-.57,2.93-2.58-2.75-3.82-7.32-8.59-8.32-10.64-.57-1.18-.85-2.84-1.1-4.16-.23-1.2-1.42-5.83.51-5.28,2.26,1.09,4.01,2.93,5.69,4.82,1.64,1.84,4.35-.74,2.83-2.7-.9-1.16-1.67-2.08-1.97-2.44-1.72-2.04-7.81-7.44-8.4-9.36-.18-.58-1.08-7.27-.97-7.64.59-1.91,4.71,1.66,5.44,2.31.53.47,1.02,1,1.48,1.55,1.51,1.82,4.24-.53,2.94-2.54-.18-.27-.32-.49-.42-.62-2.22-3.11-8.29-8.48-9.08-11.92-.39-1.68-.54-9.72-.06-14.25.18-1.68,2.1-2.46,3.2-1.29.9.95,1.68,2.08,2.39,3.05,10.76,14.77,16.88,28.52,17.34,47.84.31,12.94-5.02,31.45-11.95,42.41-1.05,1.66-1.78,2.38-2.52,2.51-1.64.29-3.16-1.2-3.74-1.79-40.81-41.68-28.43-68.41-28.43-68.41,2.29-4.94,5.47-7.81,11.29-19.91,2.79-5.8,4.76-10.76,6.01-14.11Z"/>
      <path class="c" d="M902.74,751.08c-9.93-7.11-18.61-17.85-24.88-28.3-6.53-10.89-9.99-21.43-9.49-33.74.68-16.57,10.31-29.21,11.79-45.28.07-.74-.27-6.27.5-6.16,1.57,1.47,2.74,4.08,3.34,6.12.99,3.36,2.3,18.53,1.26,21.39-1.49,4.1-5.29,8.23-7.14,12.85-1.11,2.8-3.14,7.77-1.01,10.58,1.48.05,4.6-8.88,5.39-10.59.88-1.88,1.93-4.02,2.91-5.84.3-.55.7-1.84,1.38-1.81.15,5.96,1.72,11.52-.66,17.12-2.55,5.99-5.59,8.77-6.01,16.11-.14,2.48.08,7.18,3.14,7.85,1.82-5.32,1.82-12.92,5.15-17.44.33-.45,1.16-1.51,1.54-.53,1.05,7.47,1.01,14.96,2.26,22.42.71,4.25,3.64,18.33,6.25,21.12,1,1.07,1.83-1.13,2.09-1.77,1.63-4.15-3.36-14.83-2.35-19.88l4.91,7.5c1.18.14-.36-3.72-.64-4.34-.98-2.11-2.66-3.97-3.66-5.98-1.5-3.03-3.04-9.28-3.7-12.66-.37-1.92-1.72-11.47-1-12.47.41-.57.48-.52.85.06,3.58,5.49,6.1,13.39,9.97,18.84.31.43.68.81,1.06,1.18.72-.46.5-1.29.46-2.03-.43-7.88-7.01-15.57-11.31-21.79-3.12-4.51-2.72-10.14-2.58-15.12.92-.12.91.15,1.4.72,3.82,4.34,6.97,10.47,10.62,15.07.69.21.97-.6.96-1.2-.03-1.19-3.41-7.19-4.28-8.57-4.05-6.4-9.64-11.25-11.18-18.92-.21-1.05-.85-7.27.76-7.1,12.38,10.26,20.64,21.49,23.41,37.11,3.01,16.96.8,32.97-4.62,48.65-1.37,3.97-4.24,12.46-6.04,15.8-.22.4-.4.8-.81,1.03Z"/>
      <path class="c" d="M768.35,392.48c3.46,1.27,7.62,8.79,12.68,11.96,21.94,13.77,57.56,16.79,81.91,31.16,51.44,30.34,77.91,97.14,71.39,154.31-.79,6.96-5.1,31.46-10.21,34.89-3.68,2.47-18.66-5.63-23.22-7.95-63.6-32.24-95.02-63.35-111.55-135.8-4.65-20.4-5.05-51.54-16.65-68.25-2.8-4.04-11.95-11.67-10.81-16.8.58-2.6,3.77-4.51,6.46-3.52ZM827.31,518.64c.13-4.29-4.18-16.51-4.91-22.02-.81-6.15-.11-11.47-.57-17.46-.15-1.9-1.53-4.09-1.5-4.92.06-1.41,1.96-3.17,3.65-1.56,7.79,7.41,12.87,18.28,19.14,26.92.69,2.08-2.99,10.97-3.34,14.52-.49,4.98,2.34,31.58,6.82,32.87,1.26-.71,2.03-.72,2.45-2.32.8-3.05-1.8-18.46-1.85-23.41-.02-1.7-.34-12.69,2.16-12.1,4.52,5.68,10.6,13.77,12.87,20.68,1.54,4.67-.28,13.26.2,18.98.41,4.81,4.1,27.07,9.07,27.76,1.99-.83,2.25-3.53,2.27-5.48.12-9.26-7.47-22.67-4.4-32.14,16.12,18.14,23.36,42.16,39.44,60.47,5.21,5.94,13.85,7.58,10-1.79-5.92-14.41-15.92-28.08-21.42-42.96l9.46,6.42c3.68,3.85,8.26,16.77,13.2,9.8-.27-6.4-3.44-13.89-9.08-17.4-3.54-2.2-16.02-5.45-18.49-7.65-3.19-2.84-21.27-29.06-20.97-30.92,11.96-1.09,21.3,11.06,33.09,12.69.65-10.87-3.33-15.51-12.63-19.38-7.48-3.12-25.55-5.72-30.99-9.56-2.94-2.07-7.64-9.12-10.14-12.51-4-5.43-7.97-12.21-11.77-17.89,1.25-.82,1.6-1.34,3.22-.98,13.04,2.93,26.72,12.59,39.89,15.93l4.78-1.54c-13.11-20.4-37.1-19.25-55.81-26.82-13.14-5.32-20.43-18.84-33.11-25.4l-8.6-3.06,12.53,17.29,9.27,20.03c1.01,7,4.07,13.67,5.54,20.56,2.77,12.94,0,26.4,7.81,38.09,2.04-.88,2.61-1.35,2.68-3.72Z"/>
      <path class="c" d="M809.66,645.81c7.19,1.75,16.43-3.74,23.22-3.5,1.45.05,1.61.3,1.07,1.75l-30.42,34.43c-13.85,9.09-35.17,10.39-42.01,28.7-.28.74-1.58,2.4.14,2.8,1.86.43,16.23-5.88,18.74-7.5,4.06-2.62,8-9.67,12.31-6.23,5.8,4.62-4.35,19.82-9.04,23.38-6.98,5.3-18.1,3.95-24.37,8.85-4.74,3.7-3.63,7.43,1.76,8.75,9.02,2.22,27.84-9.88,32.79-18.07,3.83-6.33,5.59-14.3,8.61-20.1,2.68-5.15,8.58-9.76,12.11-14.38,6.53-8.56,33.48-48.31,40.96-50.07,2.15-.51,1.54,7.51,1.37,9.12-3.57,32.33-29.91,75.58-53.44,96.34-21.71,19.16-50.52,34.62-74.32,52.12-2.5,1.84-13.39,13.66-13.49,5.45-.72-58.88,33.2-136.51,82.7-166.97,14.59-8.98,41.07-20.24,57.7-20.16,11.75.06.26,14.55-4.77,18.49-12.8,10.01-28.64,8.14-41.62,16.8Z"/>
      <path class="c" d="M589.57,189.29c.08-1.44,4.5-8.01-.75-7.59-14.51,2.35-11.09,40.55-14.71,50.97-3.32,9.58-17.09,21-22.21,30.31l-4.4-1.41c-2.66-19.7,5.35-39.63,2.23-59.21-6.12-1.72-8.66,4.33-10.39,8.88-8.54,22.53-1.83,44.64-6.16,64.43-.49,2.22-14.92,22.05-16.2,22.71-1.1.57-4.75.7-5.46.17-4.57-3.4,2.81-35.74,1.33-43.21-.62-3.14-2.29-4.15-5.7-3.24-2.31,1.19-5.65,17.62-6.08,21.15-1.55,12.65,1.84,26.85-.11,38.43-.66,3.96-5.15,12.31-9.52,13.12-10.8,2.01-7.75-1.17-10.39-3.94-4.37-4.57-6.11-7.4-6.66-14.51-5.39-68.89,45.89-138.59,120.52-149.24,9.47-1.35,40.35-5.15,48.13-3.97,9.81,1.49,5.92,4.9,7.19,11.2,11.48,56.91,17,104.54-23.17,153.49-33.29,40.56-81.6,43.91-131.24,50.97-4.42.63-9.43-.26-13.95.07-.19-3.97-.37-7.66,2.25-10.99,1.82-2.31,20.51-16.71,23.47-18.02,23.08-10.19,53.71-12.91,77.95-22.24,7.87-3.03,20.08-7.05,20.26-16.18-19.8,3.15-44.23,6.29-64.23,4.19-2.21-.23-3.73-.16-5.09-2.15-.49-2.15,21.18-21.46,24.65-22.39,5.03-1.35,12.87.25,18.68-.46,9.99-1.23,37.21-6.23,44.04-12.2,2.55-2.23,7.46-11.33,1.87-11.06-4.38,2.14-53.89,12.69-53.86,8.96,1.63-5.07,10-18.4,14.22-21.14,7.2-4.67,51.37-7.14,49.01-18.56-4.4-6.65-17.95-.33-25.78.32-3.63.3-7.25.24-10.87.16,7.46-11.22,30.9-31.28,33.63-43.66,2.18-9.89-6.68-8.17-12.32-3.19-5.06,4.47-16.59,22.02-21.06,28.52-2.59,3.77-3.74,11.13-9.11,11.46.43-10.27-.59-20.7,0-30.96Z"/>
      <path class="c" d="M601.38,445.95c12.1,2.04,24.05,10.76,36.26,12.26,11.83,1.46,24.84.05,36.07-3.32l14.7,19.24c-29.02,16.39-77.88,4.02-87.02-28.19Z"/>
      <path class="c" d="M550.66,96.96c-114.74-20.09-216.26-8.63-312.67,54.35-127.28,83.14-185.12,257.94-104.85,387.43,26.4,42.58,61.31,67.73,77.47,117.64,20.43,63.11-5.4,133.72-37.77,182.1,6.69,5.9,15.97,14.74,22.64,20.7,0,0,14.55-18.76,14.55-18.76,38.7-56.66,51.75-124.87,74.6-184.89,3.14-8.25,3.43-13.42,5.33-20.2,3.79-13.5,12.42-57.28,19.12-65.42,16.04-19.47,39.27-29.42,52-34.07,10.82-3.95,19.58-5.59,28.08-7.18,28.09-5.26,43.32-2.86,58.56-4.19,29.29-2.56,50.45-17.68,67.95-31.57,30.81-24.45,55.69-75.16,65.3-109.74.36-1.28.69-4.82.56-8.2-.13-3.53-3.67-5.76-7.37-5.03-3.22.64-6.38-.06-9.75.54-18.51,3.27-65.86,10.33-70.8,11.02-3.99.56-25.19,5.67-29.16,6.94-12.39,3.96-60.69,46.02-70.53,56.95-6.88,7.64-33.78,39.76-36.01,42.1-4.38,4.6-4.89,7.9-8.21,12.99-6.55,10.05-9.89,15.14-13.41,18.52-6.99,6.71-18.6,13.57-22.21,10.88-4.06-3.03,3.15-17.25,6.28-23.42,10.78-21.28,24.95-34.88,27.86-37.64,21.5-20.31,36.96-26.41,42.43-44.37.33-1.08.53-1.98.34-3.1,0,0-1.74-7.71-1.08-11.38,1.92-10.74-3.12-22.93-1.13-33.36.63-3.32,8.63-25.26,10.48-28.07,1.32-2.01,3.61-4.58,6.49-4.26,0,0,0,0,0,0v62.01c0,3.58,3.6,6.38,7.31,5.46,5.61-1.39,8.99-6.1,14.08-9.68,11.81-8.29,20.51-14.9,28.55-27.04,9.12-13.76,8.01-42.98,7.6-58.99-.11-4.33-.02-8.67.01-13,.02-3.03-2.6-5.49-5.84-5.57-2.73-.07-5.47-.17-8.17.04-42.32,3.19-105.09,48.19-121.4,80.83-11.48,22.99-21.71,46.91-25.33,72.65-.8,5.71-1.59,17.93-4.53,35.99-1.14,6.97-3.15,19.19-6.97,34.85-4.06,16.67-5.33,17.39-10.01,35.71-3.28,12.82-4.81,22.46-8.01,36.57-3.06,13.52-4.64,26.74-7.46,41.21-.64,3.29-12.55,51.3-13.25,56.47-.26,1.91-.77,3.97-2.93,2.03-11.7-33.95-17.98-66.91-40.13-96.76-32.83-44.23-67.47-70.33-80.4-127.29-37.33-164.4,72.9-299.6,236.73-348.02,8.11-2.4,35.56-10.03,42.36-10.03h16.23c6.73,0,8.37,8.76,2.01,10.83-34.72,11.35-83.02,31.56-101.31,60.31-20.14,31.65-17.17,58.79-12.09,93.31.38,2.57,1.11,7.86,3.87,8.78,6.39,2.13,4.3-2.16,5.87-3.83,5.42-5.73,21.52-30.29,23.24-37.62,1.16-4.96-1.72-8.16-1.98-12.77-.63-11.11,1.28-22.04,4.83-32.62.73-2.18,7-19.18,9.9-16.21,0,0,0,0,0,0l-2.54,42.25c-.23,3.83,3.71,6.91,7.62,5.7,5.66-1.75,11.19-8.83,14.1-12.88,9.03-12.57,4.77-17.42,6.32-31.26.62-5.49,4.74-23.97,9.88-26.57,0,0,1.72,19.59,1.45,24.76-.09,1.84-.28,4.11-.32,6.44-.08,5.14,6.71,7.7,10.41,3.88,8.68-8.98,21.72-23.87,25.36-26.79,5.85-4.7,13.64-8.4,19.89-13.1,4.43-3.33,8.37-8.44,13-12.08,4.72-3.71,11.65,1.12,9.33,6.46-4.91,11.28-16.55,22.65-18.28,23.43-12.05,5.42-30.9,19.02-39.43,29-.98,1.15-2.06,2.38-3.06,3.67-3.21,4.17.72,9.82,6.1,8.76,12.83-2.53,33.87-10.33,39.73-9.7,2.14.23,2.59-.63,2.21,2.08,0,0,0,0,0,0-10.53,17.07-37.26,21.58-54.41,19.88-7.05-.7-14.23.66-19.95,4.56-8.27,5.65-3.19,6.95-.41,13.74.9,2.2,3.05,3.7,5.58,3.67,11.09-.12,22,.5,33.06,1.57,2.15.21,4.32-1.21,3.7,2,0,0,0,0,0,0-17.02,16.89-45.4,10.07-67.94,13.96-.67.11-1.31.27-1.89.6-7.4,4.16-18.51,25.82-23.58,32.48-1.06,1.4-4.35,1.49-5.22,4.14-1.83,5.55,4.44,7.21,9.37,7.33,20.76.53,87.01-24.03,103.92-36.57,22.39-16.61,47.41-69.84,55.41-95.55,3.54-11.36,7.81-41.11,16.22-48.17,6.93-5.82,17.86-4.11,26.55-4.1,26.91.01,55.25,1.22,82.45-1.55,1.7-.17,8.09-.62,8.28-2.57,0,0,0,0,0,0-25.49-11.75-52.82-19.51-80.8-24.41ZM393.38,495.51l14.57-14.98s0,0,0,0c2.95-5.94,7.77-10.94,11.13-16.63,6.31-10.69,7.44-23.61,18.25-31.59,0,0,0,0,0,0,1.71,1.43,2.13,2.03,1.54,4.18-1.08,3.88-8.68,13.44-10.93,18.14-2.51,5.24-3.34,10.23-5.47,15.44-.67,1.65-2.63,3.17-2.83,3.93-.34,1.28.99,3.46,3.08,2.55,9.59-4.16,17.55-12.27,26.03-18.01,1.25-1.64.21-10.76.87-14.05.93-4.61,11.14-27.5,15.83-27.23,0,0,0,0,0,0,1.02,1.04,1.75,1.29,1.71,2.85-.09,2.98-6.93,15.94-8.37,20.35-.49,1.51-3.91,11.24-1.33,11.51,5.96-3.64,14.09-8.96,18.23-14.41,2.8-3.69,3.46-11.95,5.54-16.91,1.75-4.17,11.58-22.91,16.56-21.96,1.68,1.37,1.17,3.87.65,5.62-2.49,8.33-13.58,17.91-13.3,27.35,0,0,0,0,0,0,20.64-11.11,34.39-30.3,55.03-41.58,6.7-3.66,15.48-2.39,9.13,4.78-9.76,11.01-23.25,20.07-32.74,31.64,0,0,0,0,0,0l10.92-2.74c4.63-2.28,12.68-12.39,15.48-4.58-2.06,5.64-7.23,11.34-13.65,12.69-4.03.85-16.97-.2-19.97.98-3.88,1.53-28.68,19.25-28.91,21.01,11.21,4.77,23.64-3.14,35.46-.86,0,0,0,0,0,0-2.44,9.93-7.58,12.81-17.63,13.33-8.08.42-26.23-2.99-32.55-1.28-3.41.92-9.93,5.73-13.29,7.98-6.03,4.02-12.5,9.57-18.25,13.62l4.7.55c13.39,1.51,29.29-2.79,42.92-1.6,0,0,0,0,0,0l4.17,2.89s0,0,0,0c-18.37,14.09-41.17,5.45-61.33,6.29-14.16.59-24.99,10.38-39.06,12.22,0,0,0,0,0,0h-9.15s0,.01,0,.01l16.94-11.49s0,0,0,0ZM426.96,367.51c2.48-8.67,4.96-26.31,7.07-29.19.94-1.28,2.22-1.84,2.22-1.84.42-.27.78-.34,1.07-.33,1.55.02,3.1,2.28,3.83,5.64,0,0,0,0,0,0,.16,7.51-1.19,13.17-2.49,17-1.82,5.37-3.17,6.06-4.92,12.41-.66,2.37-1.47,5.91-3.37,10.89-1.85,4.84-2.94,6.39-4.12,6.4-1.36.02-2.41-2-2.7-2.56-2.63-5.07,1.1-10.35,3.41-18.42ZM336.31,450.84c.29-2.02,14.1-64.98,17.3-73.86,1.56-4.31,14.76-20.73,17.14-18.43,3.34,3.21-10.54,60.5-14.24,78.26-.71,3.4-2.33,6.53-4.7,9.07-5.51,5.91-14.22,15.27-15.5,11.15-.46-1.46-.09-5.6,0-6.19Z"/>
      <path class="c" d="M693.54,148.41c4.58,1.09,10.97,10,17.86,13.27,29.87,14.18,75.47,12.69,108.48,27.26,69.74,30.77,113.27,111.5,113.54,184.94.03,8.94-1.77,40.64-7.73,45.75-4.29,3.68-24.49-4.36-30.62-6.61-85.43-31.37-129.9-66.11-161.68-155.47-8.95-25.16-14.1-64.58-31.3-84.02-4.15-4.7-16.89-13-16.21-19.68.34-3.39,4.11-6.28,7.66-5.43ZM787.11,299.52c-.47-5.45-7.76-20.3-9.51-27.18-1.95-7.67-1.86-14.53-3.34-22.05-.47-2.38-2.55-4.95-2.63-6.01-.14-1.8,2.01-4.31,4.4-2.52,10.98,8.23,19.04,21.25,28.29,31.26,1.18,2.53-2.15,14.35-2.06,18.9.12,6.38,7.68,39.68,13.55,40.64,1.49-1.09,2.47-1.22,2.76-3.31.56-3.98-5.04-23.13-5.84-29.39-.27-2.15-2.33-16.04.93-15.66,6.58,6.52,15.49,15.87,19.41,24.29,2.65,5.69,1.62,16.85,3.09,24.02,1.24,6.03,9.24,33.7,15.64,33.84,2.39-1.35,2.32-4.81,2.06-7.29-1.23-11.76-12.85-27.63-10.38-40.08,23.14,20.58,35.91,49.96,59.02,70.76,7.5,6.75,18.68,7.54,12.4-3.77-9.66-17.38-24.38-33.22-33.56-51.26l12.95,6.72c5.23,4.33,12.97,20.03,18.19,10.46-1.3-8.08-6.44-17.1-14.11-20.7-4.82-2.26-21.12-4.52-24.58-6.94-4.47-3.13-31.3-33.66-31.2-36.07,14.99-3.17,28.65,10.84,43.84,11.15-.8-13.88-6.54-19.16-18.9-22.68-9.94-2.83-33.24-3.43-40.71-7.49-4.03-2.19-11.04-10.42-14.72-14.35-5.88-6.29-11.92-14.29-17.58-20.91,1.46-1.23,1.83-1.94,3.94-1.72,16.96,1.77,35.75,11.97,52.94,14.24l5.83-2.67c-19.66-23.9-49.9-18.86-74.75-25.66-17.45-4.78-28.71-20.83-45.76-27.26l-11.36-2.6,18.47,20.04,14.74,24.01c2.33,8.72,7.2,16.72,10.09,25.24,5.44,15.99,3.95,33.46,15.59,47.11,2.45-1.42,3.11-2.1,2.85-5.11Z"/>
    </g>
  </g>
</svg>